<?xml version="1.0" standalone="no"?>
<!DOCTYPE svg PUBLIC "-//W3C//DTD SVG 20010904//EN"
 "http://www.w3.org/TR/2001/REC-SVG-20010904/DTD/svg10.dtd">
<svg version="1.0" xmlns="http://www.w3.org/2000/svg"
 width="1080.000000pt" height="1080.000000pt" viewBox="0 0 1080.000000 1080.000000"
 preserveAspectRatio="xMidYMid meet">

<g transform="translate(0.000000,1080.000000) scale(0.100000,-0.100000)"
fill="#000000" stroke="none">
<path d="M6285 8738 c-20 -72 -48 -169 -61 -208 -8 -25 -14 -53 -14 -63 0 -9
-4 -25 -10 -35 -5 -9 -17 -44 -25 -77 -9 -33 -23 -85 -32 -115 -8 -30 -20 -77
-27 -105 -6 -27 -14 -55 -18 -61 -4 -6 -12 -31 -17 -55 -6 -24 -17 -65 -25
-91 l-14 -46 43 -11 c24 -6 50 -8 58 -5 8 3 22 33 31 67 9 34 23 87 32 117 19
67 43 151 83 295 17 61 40 142 51 180 10 39 28 101 39 138 13 48 15 70 7 72
-6 2 -23 6 -38 9 -14 3 -33 9 -41 12 -10 3 -17 -2 -22 -18z"/>
<path d="M5175 8616 c-31 -10 -41 -19 -47 -42 -4 -16 -14 -56 -22 -89 -21 -85
-45 -174 -58 -215 -7 -19 -15 -53 -19 -75 -4 -22 -15 -61 -24 -88 -14 -38 -20
-45 -31 -36 -8 6 -14 15 -14 20 0 5 -24 46 -53 92 -30 45 -69 107 -87 137 -19
30 -58 92 -88 138 l-53 83 -47 -7 c-74 -11 -78 9 36 -169 104 -161 134 -208
197 -310 33 -53 65 -103 71 -112 9 -13 21 -14 67 -9 l57 7 20 72 c12 40 28 94
36 121 7 26 14 55 14 63 0 9 7 36 15 62 8 25 24 82 35 126 12 44 27 103 35
130 33 121 32 123 -40 101z"/>
<path d="M5580 8601 c-99 -24 -182 -99 -219 -199 -26 -72 -30 -207 -6 -238 8
-10 15 -25 15 -33 0 -22 68 -99 111 -128 46 -30 157 -63 212 -63 79 0 217 54
217 85 0 7 -12 27 -26 44 l-25 31 -27 -19 c-15 -11 -51 -27 -80 -36 -50 -16
-54 -16 -126 5 -111 33 -176 102 -176 188 0 24 1 25 53 18 28 -3 123 -11 210
-17 87 -5 179 -14 205 -19 26 -4 49 -6 52 -3 3 2 5 42 4 87 -1 93 -23 151 -83
213 -68 70 -209 108 -311 84z m201 -116 c47 -36 89 -100 92 -141 l2 -39 -50
-3 c-27 -2 -68 1 -90 7 -22 6 -79 13 -125 16 -47 3 -100 8 -119 11 -31 5 -33
7 -27 36 8 43 49 94 94 118 51 28 184 25 223 -5z"/>
<path d="M4215 8393 c-11 -3 -24 -9 -29 -14 -6 -5 -17 -9 -25 -9 -28 0 -121
-74 -150 -119 -43 -70 -56 -111 -55 -176 0 -68 25 -143 63 -195 112 -154 274
-185 460 -91 45 24 141 125 141 150 0 21 -26 46 -56 55 -17 5 -24 1 -34 -24
-7 -17 -27 -42 -44 -57 -40 -34 -150 -83 -186 -83 -72 0 -199 77 -187 113 4
14 85 57 106 57 9 0 25 6 36 14 11 7 31 17 45 21 14 4 52 20 85 35 33 15 93
40 133 55 39 16 72 32 72 37 0 25 -54 109 -97 150 -72 71 -185 103 -278 81z
m157 -111 c41 -22 88 -68 88 -89 0 -7 -8 -16 -17 -19 -28 -10 -145 -55 -162
-64 -9 -4 -32 -14 -51 -22 -19 -8 -56 -25 -83 -36 -61 -28 -75 -28 -86 2 -18
46 15 140 66 188 61 58 173 76 245 40z"/>
<path d="M6594 8306 c-22 -8 -54 -21 -70 -29 -37 -19 -114 -101 -114 -121 0
-8 -5 -16 -11 -18 -5 -2 -15 -21 -20 -43 -6 -22 -14 -57 -20 -78 -10 -39 -7
-61 17 -135 41 -125 151 -212 289 -226 177 -20 317 82 361 261 16 67 16 75 0
139 -38 152 -165 250 -336 260 -30 1 -73 -3 -96 -10z m164 -98 c55 -13 103
-48 137 -100 22 -32 25 -48 24 -115 0 -67 -5 -85 -28 -123 -55 -91 -137 -129
-242 -115 -44 6 -59 15 -111 64 l-60 56 -5 71 c-7 87 18 151 80 212 57 56 120
72 205 50z"/>
<path d="M3345 8109 c-27 -11 -66 -33 -85 -47 -19 -15 -50 -37 -69 -50 -19
-13 -74 -58 -124 -100 -49 -42 -103 -89 -120 -103 -35 -30 -37 -27 55 -130 67
-76 193 -225 263 -313 28 -34 73 -89 102 -122 28 -32 63 -72 76 -89 l25 -29
53 42 c30 23 72 59 94 79 23 21 71 62 109 92 110 88 177 190 196 305 27 152
-38 309 -170 409 -85 64 -126 77 -247 76 -84 0 -119 -5 -158 -20z m248 -96
c65 -23 165 -118 197 -188 32 -72 32 -183 0 -251 -24 -51 -143 -176 -240 -253
l-54 -43 -41 44 c-22 24 -73 83 -113 132 -40 49 -93 112 -117 140 -25 28 -70
81 -100 119 l-56 67 36 31 c20 17 48 41 63 52 15 12 47 39 72 61 25 21 77 54
115 72 82 39 157 44 238 17z"/>
<path d="M7264 7903 c-31 -38 -110 -124 -174 -193 -65 -69 -153 -165 -197
-215 -43 -49 -93 -105 -111 -123 -18 -18 -32 -39 -32 -46 0 -18 59 -68 74 -64
7 2 38 32 70 68 114 126 146 160 150 160 2 0 7 -19 11 -41 12 -69 34 -111 88
-167 79 -81 113 -96 227 -96 80 -1 102 3 140 23 59 30 147 121 171 177 64 143
13 304 -126 400 -50 34 -65 39 -126 42 -78 5 -84 14 -40 56 l29 28 -33 29
c-18 16 -40 29 -48 29 -9 0 -41 -30 -73 -67z m238 -194 c15 -11 42 -38 60 -61
31 -40 33 -46 33 -124 0 -82 -1 -83 -41 -131 -69 -81 -108 -102 -187 -103 -82
0 -129 21 -180 80 -105 124 -38 318 129 369 53 17 63 17 109 4 27 -9 62 -24
77 -34z"/>
<path d="M7777 7259 c-171 -40 -287 -209 -256 -373 22 -115 94 -219 186 -271
59 -32 86 -32 101 0 17 37 15 65 -4 65 -33 0 -106 56 -141 109 -64 95 -57 229
15 294 20 19 21 18 48 -25 30 -48 95 -150 140 -218 16 -25 31 -50 34 -55 3 -6
22 -38 44 -72 l38 -62 31 15 c46 24 107 92 133 148 28 61 33 175 9 232 -70
168 -217 251 -378 213z m200 -124 c108 -73 134 -222 54 -315 l-30 -35 -35 40
c-20 22 -35 44 -36 48 0 5 -37 67 -81 138 -45 72 -79 132 -76 136 29 28 156
21 204 -12z"/>
<path d="M2650 7080 c-25 -49 -25 -82 0 -162 11 -34 20 -69 20 -76 0 -8 6 -28
14 -45 12 -30 25 -72 47 -162 5 -22 12 -48 15 -57 3 -10 1 -18 -5 -18 -6 0
-120 54 -253 120 -132 66 -247 120 -253 120 -19 0 -35 -25 -42 -63 -5 -33 -3
-37 31 -51 56 -24 99 -45 116 -56 56 -35 644 -319 651 -314 5 3 18 23 29 44
l20 39 -28 18 c-15 10 -51 30 -80 43 -46 21 -53 28 -63 64 -6 23 -18 63 -26
89 -9 26 -13 51 -9 54 7 7 120 33 230 53 32 6 67 15 77 20 10 6 29 10 43 10
21 0 31 10 57 61 l31 61 -34 -6 c-18 -4 -60 -11 -93 -16 -33 -6 -71 -14 -85
-19 -14 -5 -47 -12 -75 -16 -27 -4 -69 -13 -93 -21 -23 -8 -54 -14 -67 -14
-31 0 -38 15 -115 268 -12 39 -26 72 -31 72 -5 0 -18 -18 -29 -40z"/>
<path d="M8305 6609 c-27 -11 -68 -26 -90 -34 -22 -7 -85 -30 -140 -50 -55
-20 -116 -41 -135 -47 -19 -5 -39 -14 -44 -19 -6 -5 -16 -9 -24 -9 -27 0 -102
-44 -102 -59 0 -9 9 -30 20 -48 l19 -32 68 25 c37 13 77 28 88 33 44 18 93 34
165 53 64 18 81 19 118 9 53 -15 103 -58 127 -111 10 -22 24 -40 31 -40 20 0
84 32 84 42 0 5 -16 33 -35 63 -24 38 -50 63 -87 84 l-52 30 30 11 c16 6 35
13 43 15 18 7 7 64 -17 87 -16 15 -20 15 -67 -3z"/>
<path d="M2377 6315 c-95 -72 -144 -249 -103 -372 56 -168 245 -261 420 -208
77 24 161 97 189 164 57 140 51 261 -17 346 l-24 30 -35 -33 -35 -34 29 -56
c33 -66 35 -94 12 -165 -22 -66 -85 -131 -145 -147 -80 -22 -191 3 -245 56
-45 44 -63 89 -63 157 0 98 34 157 119 207 11 6 11 14 -5 46 -11 22 -26 40
-35 42 -8 1 -36 -13 -62 -33z"/>
<path d="M7967 5732 c-32 -33 -34 -67 -8 -102 27 -34 95 -35 122 -1 65 80 -42
178 -114 103z"/>
<path d="M2670 5584 c-14 -2 -96 -8 -183 -12 -152 -9 -160 -10 -200 -38 -23
-17 -53 -50 -67 -74 -22 -40 -25 -56 -25 -155 0 -115 21 -197 64 -254 l18 -23
41 23 c35 20 39 26 28 39 -56 66 -76 242 -36 308 22 37 96 75 133 70 21 -3 22
-9 29 -133 12 -243 52 -305 195 -305 69 0 75 2 112 35 91 82 96 271 11 376
-31 39 -29 43 18 39 20 -1 22 3 22 54 l0 56 -67 -1 c-38 -1 -79 -4 -93 -5z
m16 -136 c47 -30 84 -111 84 -184 0 -48 -4 -57 -38 -94 -33 -34 -45 -40 -79
-40 -76 0 -103 65 -103 246 l0 94 50 0 c35 0 61 -7 86 -22z"/>
<path d="M8083 5110 c-54 -24 -137 -106 -159 -156 -21 -49 -35 -112 -41 -190
-12 -153 78 -279 232 -328 106 -33 158 -46 180 -46 13 0 36 -5 52 -11 15 -6
60 -17 98 -24 39 -8 88 -18 110 -24 47 -12 102 -14 108 -3 3 4 7 24 8 46 l4
38 -60 18 c-33 10 -109 28 -170 40 -60 12 -132 28 -159 36 -26 8 -59 14 -72
14 -34 0 -151 57 -180 88 -13 15 -32 51 -41 81 -13 45 -14 66 -4 123 19 113
65 168 169 202 56 19 72 17 267 -30 33 -8 83 -19 110 -24 96 -18 160 -32 205
-45 25 -7 48 -10 52 -6 4 3 10 29 14 58 l6 52 -38 6 c-22 3 -61 12 -88 20 -26
8 -58 15 -69 15 -11 0 -43 7 -71 15 -205 58 -383 72 -463 35z"/>
<path d="M2792 4972 c-22 -17 -23 -52 -2 -52 13 0 23 -84 15 -120 -10 -44 -21
-49 -290 -116 -154 -38 -148 -39 -158 39 -7 50 -31 107 -47 107 -5 0 -20 -4
-33 -9 -23 -9 -24 -11 -15 -77 5 -37 14 -77 20 -87 11 -21 -3 -36 -32 -37 -8
0 -32 -5 -52 -11 -34 -9 -38 -13 -38 -42 0 -46 10 -77 25 -77 7 0 36 7 64 17
60 19 71 13 80 -44 7 -38 7 -38 50 -36 24 1 45 4 47 5 2 2 -3 28 -11 57 -13
52 -13 52 11 62 14 5 34 9 44 9 10 0 31 5 45 10 15 6 55 17 89 24 201 47 229
58 271 107 26 32 30 55 25 149 -3 62 -41 140 -68 140 -10 0 -27 -8 -40 -18z"/>
<path d="M2755 4474 c-40 -20 -83 -62 -103 -99 -19 -36 -20 -174 -2 -220 6
-16 18 -72 26 -124 16 -111 9 -153 -35 -195 -26 -25 -35 -28 -76 -24 -103 12
-191 142 -204 303 l-6 70 -45 0 -45 0 1 -71 c1 -148 100 -324 216 -386 40 -22
144 -24 191 -4 96 40 142 144 118 266 -49 245 -52 274 -38 315 15 44 65 85
104 85 103 0 213 -178 213 -346 0 -44 5 -85 10 -90 6 -6 27 -8 48 -5 l37 6 0
107 c0 72 -4 111 -12 120 -7 6 -13 21 -13 33 0 35 -76 159 -125 204 -25 23
-62 49 -80 57 -46 19 -142 18 -180 -2z"/>
<path d="M7715 4310 c-33 -63 -28 -69 133 -147 81 -40 199 -96 262 -126 63
-30 162 -78 219 -106 57 -28 109 -51 117 -51 12 0 54 68 54 88 0 5 -26 21 -57
37 -72 35 -322 155 -513 246 -80 38 -153 74 -162 79 -28 16 -36 12 -53 -20z"/>
<path d="M7548 4233 c-37 -43 -26 -76 55 -174 31 -37 281 -368 362 -479 40
-55 210 -279 272 -359 11 -14 15 -12 37 14 14 17 25 36 26 43 0 8 -26 47 -57
89 -32 41 -71 94 -88 117 -16 24 -42 58 -57 77 -37 45 -226 293 -263 345 -106
146 -258 344 -264 344 -4 0 -15 -8 -23 -17z"/>
<path d="M3348 3548 c-78 -73 -197 -185 -263 -249 -66 -64 -146 -141 -177
-172 -32 -30 -58 -59 -58 -65 0 -5 13 -24 30 -42 20 -21 34 -29 44 -23 16 9
122 108 281 262 61 58 167 160 238 225 70 65 127 122 127 125 0 11 -58 71 -68
71 -6 0 -75 -60 -154 -132z"/>
<path d="M7275 3622 c-135 -58 -223 -152 -264 -283 -15 -47 -14 -77 3 -143 23
-89 44 -117 222 -311 177 -192 200 -215 217 -215 19 0 77 39 77 52 0 10 -72
92 -194 218 -186 194 -220 246 -220 340 0 57 4 71 32 112 66 96 160 147 245
134 59 -10 109 -39 172 -103 89 -90 275 -289 292 -312 7 -12 23 -26 35 -32 17
-9 25 -6 49 17 16 15 29 35 29 44 0 19 -52 79 -248 287 -114 122 -144 148
-204 178 -60 30 -80 35 -137 34 -39 0 -83 -7 -106 -17z"/>
<path d="M3651 3408 c-29 -35 -84 -102 -124 -149 -39 -48 -112 -135 -162 -195
-49 -59 -116 -137 -149 -173 -81 -91 -88 -107 -53 -137 16 -13 35 -24 44 -24
17 0 80 67 173 180 66 81 193 233 260 310 98 114 140 169 140 188 0 22 -40 62
-62 62 -9 0 -39 -28 -67 -62z"/>
<path d="M3897 3278 c-23 -38 -117 -208 -117 -211 0 -2 -36 -69 -81 -148 -44
-79 -81 -155 -82 -169 -2 -20 6 -29 37 -44 39 -19 39 -19 55 3 9 11 30 47 46
78 17 31 51 94 78 139 26 45 47 85 47 88 0 12 49 52 83 69 66 30 146 18 220
-35 30 -22 67 -89 67 -125 0 -21 -21 -79 -41 -113 -5 -8 -12 -22 -16 -30 -4
-8 -37 -70 -75 -137 -37 -67 -68 -129 -68 -137 0 -17 31 -40 67 -50 16 -5 25
-1 35 18 7 14 53 98 103 188 88 160 90 164 93 241 5 102 1 116 -57 179 -83 91
-216 130 -314 92 -16 -6 -16 -3 -2 30 20 48 20 51 -19 75 -42 26 -42 26 -59
-1z"/>
<path d="M6777 3227 c-30 -14 -49 -29 -51 -42 -2 -11 -9 -47 -16 -80 -6 -33
-18 -96 -25 -140 -35 -200 -41 -215 -72 -184 -24 24 -339 189 -361 189 -26 0
-102 -36 -102 -48 0 -5 13 -15 30 -23 16 -8 71 -37 123 -66 51 -28 133 -72
181 -97 49 -25 100 -54 114 -65 l25 -18 -16 -69 c-9 -38 -21 -96 -27 -129 -24
-147 -32 -192 -42 -226 -18 -64 -10 -71 49 -43 50 24 52 27 58 72 4 26 13 74
21 108 8 33 14 69 14 80 0 19 30 155 36 163 2 2 36 -15 76 -37 40 -22 109 -59
153 -82 44 -24 84 -47 90 -51 16 -16 79 -9 113 11 39 24 40 35 5 49 -16 6 -42
19 -58 30 -26 16 -249 138 -295 162 -8 4 -23 10 -33 13 -16 5 -18 14 -14 54 4
50 18 124 42 232 8 36 20 94 26 130 26 150 30 140 -44 107z"/>
<path d="M4968 2864 c-2 -5 -12 -45 -22 -89 -10 -44 -24 -103 -32 -131 -8 -28
-14 -57 -14 -65 -1 -40 -13 -41 -144 -10 -71 17 -140 31 -155 31 -15 0 -31 4
-37 10 -5 5 -30 13 -55 16 l-46 6 -7 -42 c-4 -24 -5 -44 -3 -46 5 -5 130 -37
252 -63 158 -35 150 -31 149 -76 -2 -41 -13 -95 -42 -198 l-16 -59 -55 7 c-31
4 -75 13 -99 21 -23 8 -53 14 -67 14 -13 0 -36 5 -52 11 -15 6 -57 17 -93 24
-36 8 -74 16 -85 20 -17 5 -22 0 -31 -34 -14 -50 1 -67 66 -76 25 -4 65 -13
90 -20 25 -7 90 -23 145 -35 55 -12 123 -28 150 -36 28 -7 66 -15 85 -16 32
-3 35 0 48 37 7 22 20 72 28 110 8 39 21 97 28 130 39 165 58 246 71 305 8 36
23 105 35 154 11 49 18 91 16 93 -8 9 -104 15 -108 7z"/>
<path d="M5710 2851 c-15 -28 -12 -97 4 -110 8 -7 30 -15 49 -18 30 -4 40 -1
62 22 23 22 26 32 22 62 -9 51 -23 63 -78 63 -38 0 -51 -4 -59 -19z"/>
</g>
</svg>
